<?xml version="1.0"?>
<svg xmlns="http://www.w3.org/2000/svg" id="Layer_1" data-name="Layer 1" viewBox="0 0 512 512" width="512px" height="512px" class=""><g><title class="active-path" style="">Global ads reach</title><path d="M54.589,425.906a5.973,5.973,0,0,0,1.2,1.442c.085.074.174.138.262.207A182.364,182.364,0,0,0,187.306,489.07a5.235,5.235,0,0,0,1.676.04c1.253.025,2.506.048,3.764.048s2.511-.023,3.763-.048a5.242,5.242,0,0,0,1.677-.04,182.364,182.364,0,0,0,131.293-61.557c.064-.053.137-.09.2-.145a5.982,5.982,0,0,0,1.219-1.458,181.967,181.967,0,0,0,44.3-109.263,5.943,5.943,0,0,0,2.782-1.555,41.423,41.423,0,0,0,0-58.515l-13.943-13.943c-1.408-3.78-2.947-7.537-4.61-11.228A217.1,217.1,0,0,1,397.32,213.26l91.038-33.1a6,6,0,0,0,2.192-9.881L450.6,130.327a41.372,41.372,0,0,0-57.695-57.693L352.966,32.69a6,6,0,0,0-9.881,2.193l-33.1,91.037a217.773,217.773,0,0,1-13.547,29.993,180.969,180.969,0,0,0-98.286-32.16,5.984,5.984,0,0,0-1.493-.044q-1.95-.041-3.908-.042c-1.287,0-2.568.022-3.85.048a5.956,5.956,0,0,0-1.548.038,182.356,182.356,0,0,0-131.3,61.518c-.087.068-.177.132-.261.206a6,6,0,0,0-1.2,1.441,182.41,182.41,0,0,0,0,238.988Zm5.405-226.745a182.4,182.4,0,0,0,37.534,30.391,245.84,245.84,0,0,0-11.57,70.86H22.117A169.9,169.9,0,0,1,59.994,199.161Zm220.06,1.473,42.558,42.559q-6.818,5.814-13.153,12.134a11.687,11.687,0,0,1-16.529,0l-25.015-25.015a11.7,11.7,0,0,1,0-16.53c2.315-2.315,4.607-4.708,6.815-7.114C276.547,204.686,278.312,202.668,280.054,200.634Zm45.464,213a180.531,180.531,0,0,0-37.5-30.541,245.856,245.856,0,0,0,11.511-70.685h63.841A169.9,169.9,0,0,1,325.518,413.638Zm-138.772-56.96A182.365,182.365,0,0,0,108.2,377.234a234.757,234.757,0,0,1-10.242-64.822h88.789Zm0,12.01V475.665c-34.16-17.7-59.831-48.157-74.583-86.94A170.425,170.425,0,0,1,186.746,368.688Zm12-.036A168.394,168.394,0,0,1,273.4,388.543c-14.74,38.871-40.44,69.394-74.654,87.122Zm0-12.009V312.412h88.788a234.821,234.821,0,0,1-10.18,64.629A180.3,180.3,0,0,0,198.746,356.643Zm0-100.464a179.209,179.209,0,0,0,64.319-13.747l20.878,20.877a247.988,247.988,0,0,1,3.6,37.1h-88.8Zm100.8,44.233a264.107,264.107,0,0,0-2.359-30,23.691,23.691,0,0,0,3.967.34,24.109,24.109,0,0,0,2.78-.161,23.764,23.764,0,0,0,14.006-6.78c.045-.045.092-.088.138-.134l36.734,36.735ZM259.429,205.3a23.72,23.72,0,0,0-4.38,27.427,167.177,167.177,0,0,1-56.3,11.447V137.156c26.816,13.9,48.905,36.06,64.261,64.47C261.826,202.864,260.633,204.092,259.429,205.3Zm-72.683,38.842A170.363,170.363,0,0,1,112.165,224.1c14.752-38.782,40.422-69.236,74.581-86.932Zm0,12.011v44.264H97.957A234.727,234.727,0,0,1,108.2,235.594,182.272,182.272,0,0,0,186.746,256.148ZM85.958,312.412a245.827,245.827,0,0,0,11.568,70.863,182.375,182.375,0,0,0-37.532,30.388A169.9,169.9,0,0,1,22.117,312.412ZM67.9,422.761a170.4,170.4,0,0,1,33.75-27.932c12.9,33,33.366,60.311,60.04,79.49A170.649,170.649,0,0,1,67.9,422.761Zm155.9,51.558c26.721-19.211,47.209-46.584,60.107-79.659a168.52,168.52,0,0,1,33.7,28.082A170.639,170.639,0,0,1,223.8,474.319ZM373.361,301.831a6,6,0,0,0-.6-.447l-45.945-45.943a218.1,218.1,0,0,1,18.377-14.684L369.5,265.062A29.423,29.423,0,0,1,373.361,301.831Zm43.53-224.857a29.372,29.372,0,0,1,25.058,44.7L401.561,81.284A29.186,29.186,0,0,1,416.891,76.974Zm-95.633,53.047,29.885-82.184L475.4,172.1l-82.184,29.885A230.721,230.721,0,0,0,332,235.609l-44.343-44.343A228.017,228.017,0,0,0,321.258,130.021Zm-49.771,62.165a168.552,168.552,0,0,0-47.787-53.74,168.813,168.813,0,0,1,66.66,27.865A216.377,216.377,0,0,1,271.487,192.186ZM161.707,138.5c-26.68,19.176-47.147,46.49-60.053,79.5A170.419,170.419,0,0,1,67.9,190.063,170.657,170.657,0,0,1,161.707,138.5Z" data-original="#000000" class="active-path" fill="#FFFFFF"/><path d="M471.161,105.734a6,6,0,0,0,7.808-3.323,43.449,43.449,0,0,0-56.538-56.537A6,6,0,1,0,426.915,57a31.45,31.45,0,0,1,40.923,40.923A6,6,0,0,0,471.161,105.734Z" data-original="#000000" class="active-path" fill="#FFFFFF"/><path d="M419.857,38.535a51.067,51.067,0,0,1,66.451,66.449,6,6,0,1,0,11.13,4.485A63.067,63.067,0,0,0,415.373,27.4a6,6,0,0,0,4.484,11.131Z" data-original="#000000" class="active-path" fill="#FFFFFF"/></g> </svg>
