<?xml version="1.0"?>
<svg xmlns="http://www.w3.org/2000/svg" height="512px" viewBox="0 -22 412.279 412" width="512px" class=""><g><path d="m402.28125 199.359375v92.671875c-.003906 36.507812-29.601562 66.105469-66.109375 66.109375h-260.0625c-36.511719-.003906-66.109375-29.601563-66.109375-66.109375v-92.671875l.558594-1.039063h102.632812l17.238282 37.347657c7.207031 15.609375 22.828124 25.609375 40.019531 25.613281h69.519531c17.195312-.003906 32.816406-10.003906 40.019531-25.613281l17.242188-37.347657h104.578125zm0 0" fill="#00efd1" data-original="#00EFD1" class="active-path" data-old_color="#00efd1" style="fill:#FFFFFF"/><g fill="#083863"><path d="m409.792969 191.738281-40.144531-88.003906c-8.816407-19.25-28.03125-31.605469-49.203126-31.640625h-25.558593c-5.523438 0-10 4.476562-10 10s4.476562 10 10 10h25.558593c13.339844.027344 25.445313 7.8125 31 19.941406l34.800782 76.289063h-89.015625c-3.902344 0-7.445313 2.269531-9.078125 5.808593l-17.242188 37.347657c-5.589844 12.050781-17.65625 19.773437-30.9375 19.800781h-69.523437c-13.285157-.027344-25.347657-7.75-30.9375-19.800781l-17.242188-37.347657c-1.632812-3.542968-5.179687-5.808593-9.078125-5.808593h-85.890625l42.152344-78.308594c5.9375-11.042969 17.464844-17.933594 30.007813-17.925781h17.929687c5.523437 0 10-4.476563 10-10 0-5.523438-4.476563-10-10-10h-17.929687c-19.902344-.011719-38.195313 10.914062-47.621094 28.441406l-48.753906 90.574219c-1.972657 1.882812-3.085938 4.488281-3.085938 7.214843 0 .191407.0195312.382813.0273438.570313-.0078126.15625-.0273438.3125-.0273438.46875v92.671875c.0507812 42.011719 34.09375 76.058594 76.109375 76.109375h260.0625c42.011719-.050781 76.058594-34.097656 76.105469-76.109375v-92.671875c0-.167969-.015625-.335937-.023438-.507813.007813-.175781.023438-.351562.023438-.53125 0-2.425781-.882813-4.765624-2.484375-6.582031zm-73.621094 156.402344h-260.0625c-30.972656-.035156-56.074219-25.136719-56.109375-56.109375v-83.710938h86.792969l14.558593 31.542969c8.875 19.121094 28.019532 31.371094 49.101563 31.414063h69.519531c21.082032-.042969 40.230469-12.292969 49.101563-31.417969l14.558593-31.539063h88.652344v83.707032c-.035156 30.976562-25.140625 56.078125-56.113281 56.113281zm0 0" data-original="#083863" class="" style="fill:#FFFFFF" data-old_color="#083863"/><path d="m145.070312 122.554688 54.78125 44.308593c3.691407 2.984375 8.96875 2.964844 12.636719-.046875l53.921875-44.3125c4.265625-3.503906 4.882813-9.808594 1.375-14.074218-3.507812-4.265626-9.808594-4.882813-14.074218-1.375l-37.570313 30.875v-127.789063c0-5.523437-4.476563-10-10-10s-10 4.476563-10 10v128l-38.492187-31.136719c-4.292969-3.472656-10.589844-2.804687-14.0625 1.488282-3.472657 4.292968-2.808594 10.589843 1.484374 14.0625zm0 0" data-original="#083863" class="" style="fill:#FFFFFF" data-old_color="#083863"/></g></g> </svg>
