<?xml version="1.0"?>
<svg xmlns="http://www.w3.org/2000/svg" height="512px" viewBox="-39 0 512 512" width="512px" class=""><g><path d="m412.773438 227.953125c-2.828126-2.984375-6.753907-4.671875-10.859376-4.671875h-44.582031c-34.523437 50.796875-93.179687 88.398438-100.8125 93.164062-6.535156 4.078126-14.054687 6.234376-21.75 6.234376-7.652343 0-15.136719-2.132813-21.640625-6.164063-7.691406-4.769531-66.75-42.375-101.25-93.234375h-53c-5.003906 0-9.679687 2.507812-12.464844 6.683594l-42.039062 63.042968c-.183594.273438-.355469.558594-.523438.84375-5.136718 8.929688-5.136718 19.589844 0 28.515626 5.132813 8.933593 14.332032 14.265624 24.601563 14.265624h31.300781l3.171875 74.710938c-.109375 11.179688 4.644531 21.753906 13.09375 29.074219 8.503907 7.367187 19.703125 10.535156 30.773438 8.722656l32.300781-4.175781 64.382812-15.277344c10-2.378906 18.414063-9.011719 23.089844-18.191406 9.160156-17.984375 20.820313-41.570313 20.9375-41.808594 3.683594-7.449219 12.683594-10.492188 20.105469-6.792969 7.417969 3.699219 10.449219 12.734375 6.765625 20.183594-.117188.238281-11.855469 23.984375-21.097656 42.128906-8.683594 17.054688-24.3125 29.371094-42.878906 33.789063 0 0-47.980469 11.621094-71.15625 17.109375l.097656 20.90625c.039062 8.289062 6.742187 14.988281 15 14.988281h184.75c8.285156 0 15-6.742188 15-15.058594v-114.511718c43.53125-45.84375 59.308594-70.414063 62.808594-143.363282.199218-4.113281-1.292969-8.132812-4.125-11.113281zm0 0" data-original="#000000" class="active-path" data-old_color="#000000" fill="#FFFEFE"/><path d="m234.769531 292.679688c-2.023437 0-4.046875-.554688-5.835937-1.664063-3.28125-2.035156-80.6875-50.496094-105.058594-107.644531-5-11.726563-7.503906-23.210938-7.441406-34.132813.121094-19.996093 6.832031-38.851562 18.902344-53.089843 12.546874-14.796876 29.386718-22.949219 47.421874-22.949219 20.660157 0 39.679688 11.019531 52.011719 28.925781 12.332031-17.90625 31.351563-28.925781 52.007813-28.925781 16.214844 0 31.828125 6.75 43.957031 19.003906 14.34375 14.484375 22.496094 35.320313 22.367187 57.167969-.0625 10.894531-2.660156 22.347656-7.714843 34.050781-24.664063 57.09375-101.496094 105.542969-104.757813 107.578125-1.792968 1.117188-3.828125 1.679688-5.859375 1.679688zm0 0" data-original="#000000" class="active-path" data-old_color="#000000" fill="#FFFEFE"/><path d="m62.484375 182.476562h-11.417969c-8.285156 0-15-6.742187-15-15.058593 0-8.316407 6.714844-15.058594 15-15.058594h11.417969c8.285156 0 15 6.742187 15 15.058594 0 8.316406-6.714844 15.058593-15 15.058593zm0 0" data-original="#000000" class="active-path" data-old_color="#000000" fill="#FFFEFE"/><path d="m418.46875 182.476562h-11.636719c-8.28125 0-15-6.742187-15-15.058593 0-8.316407 6.71875-15.058594 15-15.058594h11.636719c8.285156 0 15 6.742187 15 15.058594 0 8.316406-6.714844 15.058593-15 15.058593zm0 0" data-original="#000000" class="active-path" data-old_color="#000000" fill="#FFFEFE"/><path d="m107.265625 85.433594c-3.839844 0-7.675781-1.46875-10.605469-4.410156l-9.558594-9.589844c-5.859374-5.878906-5.859374-15.414063-.003906-21.300782 5.855469-5.882812 15.351563-5.882812 21.210938-.003906l9.558594 9.589844c5.859374 5.878906 5.863281 15.414062.007812 21.300781-2.929688 2.941407-6.769531 4.414063-10.609375 4.414063zm0 0" data-original="#000000" class="active-path" data-old_color="#000000" fill="#FFFEFE"/><path d="m363.707031 85.433594c-3.84375 0-7.683593-1.472656-10.609375-4.414063-5.855468-5.882812-5.855468-15.421875.003906-21.300781l9.558594-9.589844c5.863282-5.882812 15.359375-5.878906 21.214844.003906 5.855469 5.882813 5.855469 15.421876-.007812 21.300782l-9.558594 9.589844c-2.929688 2.941406-6.765625 4.410156-10.601563 4.410156zm0 0" data-original="#000000" class="active-path" data-old_color="#000000" fill="#FFFEFE"/><path d="m234.660156 40.910156c-8.285156 0-15-6.742187-15-15.058594v-10.792968c0-8.316406 6.714844-15.058594 15-15.058594s15 6.742188 15 15.058594v10.792968c0 8.316407-6.714844 15.058594-15 15.058594zm0 0" data-original="#000000" class="active-path" data-old_color="#000000" fill="#FFFEFE"/></g> </svg>
